<?xml version="1.0" encoding="utf-8"?>
<!-- Generator: Adobe Illustrator 15.0.0, SVG Export Plug-In . SVG Version: 6.00 Build 0)  -->
<!DOCTYPE svg PUBLIC "-//W3C//DTD SVG 1.1//EN" "http://www.w3.org/Graphics/SVG/1.1/DTD/svg11.dtd">
<svg version="1.1" id="Layer_1" xmlns="http://www.w3.org/2000/svg" xmlns:xlink="http://www.w3.org/1999/xlink" x="0px" y="0px"
	 width="155.91px" height="153.07px" viewBox="0 0 155.91 153.07" enable-background="new 0 0 155.91 153.07" xml:space="preserve">
<g>
	<g>
		<path fill="#FFFFFF" d="M77.989,129.423c29.515,0,53.68-23.927,53.68-53.441s-25.141-53.232-53.68-53.205
			c-29.514,0.028-53.838,23.69-53.838,53.205S48.476,129.423,77.989,129.423z"/>
		<path fill="none" d="M127.948,62.275c-0.002-0.004-0.003-0.008-0.004-0.013c-0.006,0-0.012-0.001-0.018-0.001
			C127.934,62.266,127.94,62.271,127.948,62.275z"/>
		<path fill="#FFFFFF" d="M103.01,42.136c-6.91,1.055-16.176,1.667-25.88,1.659c0.125-10.619,0.304-18.291,0.51-20.609
			C87.468,24.862,96.403,31.949,103.01,42.136z"/>
		<path fill="#D2242A" d="M114.542,80.292c-10.005,1.526-23.415,2.412-37.458,2.399c-0.016-14.468,0.054-28.426,0.182-39.295
			c9.694,0.008,18.952-0.603,25.859-1.657C109.883,52.168,114.201,65.845,114.542,80.292z"/>
		<path fill="#FFFFFF" d="M113.663,80.221c-2.774-0.438-5.113-5.071-3.888-9.856c-3.913,2.705-8.317-2.854-7.675-7.997
			c0.341-2.725,2.126-5.146,5.239-4.022c-1.267-4.35-2.852-8.465-4.703-12.253c-2.763,0.35-5.793,0.642-9.008,0.868
			c2.855,4.315,0.054,8.328-3.929,7.689c-2.89-0.463-5.587-3.493-4.836-7.101c-2.345,1.626-7.169,0.984-7.604-4.168
			c8.857-0.045,16.648-0.343,25.883-1.646c0,0,0,0.001,0.001,0.001c7.46,12.309,10.666,23.1,11.435,38.487
			C114.304,80.223,113.934,80.264,113.663,80.221z"/>
		<path fill="#FFFFFF" d="M49.52,116.272c-5.514-0.925-9.179-2.11-10.415-3.393c-1.363-1.532-3.147-3.606-4.41-5.223
			c-3.063-4.481-3.122-4.567-4.472-7.145c-2.348-4.966-2.393-5.062-3.313-7.82c-1.551-5.365-1.58-5.467-2.051-8.384
			c-0.302-2.532-0.578-5.925-0.68-8.472l0.046-2.317c-0.094,2.268,5.382,4.42,14.854,6.009c-0.021,0.752-0.032,1.507-0.031,2.264
			C39.07,95.744,43.044,107.819,49.52,116.272z"/>
		<path fill="#FFFFFF" d="M77.813,129.419c-0.248-0.002-0.58-0.003-0.829-0.007c-0.492-0.011-0.983-0.031-1.475-0.044
			c-3.227-0.179-5.336-0.487-8.103-0.994c-6.963-1.592-13.137-5.896-17.927-12.196c4.727,0.791,10.802,1.392,17.868,1.698
			c3.339,0.145,6.697,0.216,10.009,0.219C77.482,125.252,77.642,129.414,77.813,129.419L77.813,129.419z"/>
		<path fill="#D2242A" d="M77.355,118.094c-3.311-0.003-6.669-0.073-10.008-0.219c-7.057-0.307-13.127-0.905-17.851-1.694
			c-6.418-8.446-10.353-20.48-10.374-34.377c-0.001-0.607,0.006-1.215,0.02-1.82c6.436,1.075,14.705,1.891,24.319,2.309
			c4.548,0.197,9.123,0.294,13.633,0.298c0,0.606,0.001,1.214,0.002,1.823C77.119,98.309,77.215,110.079,77.355,118.094z"/>
		<path fill="#D2242A" d="M77.274,118.83c-0.461,1.853-3.056,3.621-6.73,2.124c1.718,2.265,0.231,4.222-2.79,3.674
			c-2.349-0.426-5.137-2.314-5.354-4.205c-2.904-0.221-5.558-0.5-7.919-0.826c2.24,2.604,4.739,4.731,7.44,6.312
			c0.322-0.133,0.822-0.1,2.422,0.461c2.049,0.718,3.961,1.763,6.005,2.49c0,0.002,0,0.006,0,0.009
			c-1.603-0.247-1.809-0.278-2.945-0.495c-3.856-1.109-11.034-3.174-17.923-12.195c0,0,0,0-0.001,0c0.001,0,0.001,0,0.001,0h0.001
			c8.298,1.281,16.375,1.834,27.879,1.907C77.335,118.309,77.328,118.611,77.274,118.83z"/>
		<path fill="#FFFFFF" d="M49.48,116.178L49.48,116.178c-7.39-10.581-10.298-20.713-10.375-36.138
			c4.177,1.378,5.324,7.479,4.251,10.909c3.974-1.532,8.964,5.332,7.217,9.925c-0.806,2.115-2.896,2.703-5.086,1.429
			c1.183,4.009,2.718,7.672,4.551,10.917c2.809,0.388,5.964,0.72,9.417,0.981c-2.772-3.413-0.549-6.209,3.148-6.019
			c3.176,0.162,7.378,2.802,6.479,6.408c2.863-1.291,7.712-0.231,8.278,3.514c-3.48-0.026-8.739-0.065-15.475-0.531
			C57.73,117.286,53.632,116.5,49.48,116.178z"/>
		<path fill="#D2242A" d="M49.479,116.178L49.479,116.178L49.479,116.178z"/>
		<polygon fill="#D2242A" points="49.479,116.178 49.479,116.178 49.479,116.178 		"/>
		<path fill="#D2242A" d="M49.479,116.178c-6.113-1.104-8.757-1.963-10.477-3.403c-1.238-1.4-2.878-3.28-4.034-4.75
			c0.211,0.266,0.351,0.441,0.919,1.105c-0.559-0.699-3.354-4.27-3.557-5.844c1.519-0.243,6.414,7.392,6.462,7.469
			c1.485,0.554,3.419,1.074,5.751,1.546c-2.193-3.306-4.031-7.02-5.445-11.066c-3.333,1.683-7.587-7.126-6.238-10.842
			c0.274-0.759,1.157-2.337,3.416-0.629c-1.702-3.921-1.254-9.73,2.852-9.722C39.221,93.03,41.017,104.146,49.479,116.178z"/>
		<path fill="#010101" d="M114.305,89.49l-0.067-0.097c0.234-2.393,0.353-4.857,0.349-7.385c-0.001-0.592-0.008-1.182-0.022-1.771
			c0.026-0.004,0.052-0.008,0.078-0.012c0.015,0.589,0.022,1.18,0.023,1.771C114.669,84.562,114.546,87.063,114.305,89.49z"/>
		<path fill="#010101" d="M86.096,128.786l-0.031,0.005c14.726-2.287,26.075-17.915,28.173-39.397l0.067,0.097
			C112.175,110.911,100.821,126.49,86.096,128.786L86.096,128.786z"/>
		<path fill="#010101" d="M103.868,122.694c-3.637,1.87-4.393,2.259-8.284,3.72c-1.145,0.372-2.677,0.854-3.836,1.183
			c7.491-2.019,14.143-6.301,19.398-12.259c-1.117,2.481-1.884,3.897-5.8,6.499C104.859,122.131,104.366,122.417,103.868,122.694z"
			/>
		<path fill="#F3C727" d="M105.347,121.837c3.223-2.229,4.583-3.545,5.801-6.499c7.699-8.726,12.407-21.046,12.386-35.11
			c-0.001-0.591-0.011-1.181-0.028-1.77c2.433-0.64,4.389-1.341,5.766-2.093c0.021,0.587,0.03,1.178,0.031,1.768
			C129.331,97.005,119.768,113.127,105.347,121.837z"/>
		<path fill="#010101" d="M89.262,107.999c-3.564-3.573-3.564-3.573-12.131-11.688c-0.02-3.746-0.032-7.727-0.039-11.898
			c-0.001-0.592-0.002-1.183-0.002-1.772c4.644,0.004,9.218-0.091,13.623-0.272c0.006,0.589,0.01,1.18,0.011,1.771
			C90.737,93.115,90.208,101.216,89.262,107.999z"/>
		<path fill="#F3C727" d="M80.096,129.373l-0.338,0.013c-0.739,0.021-1.076,0.031-1.386,0.031l-0.56,0.002
			c-0.311-0.01-0.58-13.241-0.682-33.107c8.014,7.584,8.852,8.377,12.131,11.688C87.444,121.031,84.09,129.2,80.096,129.373z"/>
		<path fill="#010101" d="M82.631,129.207c-0.424,0.034-0.99,0.079-1.416,0.107c-0.336,0.019-0.783,0.043-1.119,0.059
			c3.99-0.172,7.343-8.328,9.162-21.342c3.867,4.065,5.573,6.051,7.443,9.096C93.059,124.317,88.162,128.713,82.631,129.207z"/>
		<path fill="#F3C727" d="M96.701,117.127c-1.843-2.896-2.962-4.43-7.443-9.096c0.948-6.79,1.479-14.901,1.466-23.892
			c-0.001-0.592-0.005-1.183-0.01-1.771c4.408-0.184,8.647-0.456,12.616-0.809c0.011,0.59,0.016,1.18,0.017,1.771
			C103.368,97.13,100.848,108.939,96.701,117.127L96.701,117.127z"/>
		<path fill="#010101" d="M97.779,123.695c0.674-2.12,0.615-3.371-1.062-6.601c4.137-8.187,6.65-19.983,6.629-33.764
			c-0.001-0.592-0.006-1.182-0.017-1.771c1.489-0.132,2.94-0.275,4.348-0.43c1.969,2.322,4.42,5.211,6.56,8.264
			C112.742,104.704,106.547,117.042,97.779,123.695z"/>
		<path fill="#F3C727" d="M86.064,128.791c-0.398,0.058-0.929,0.136-1.328,0.188c-1.254,0.15-1.254,0.15-1.902,0.211l-0.202,0.018
			c5.539-0.494,10.441-4.902,14.086-12.112c1.445,2.887,1.912,4.203,1.062,6.601C94.246,126.376,90.295,128.135,86.064,128.791
			L86.064,128.791z"/>
		<path fill="#F3C727" d="M91.748,127.597l-1.293,0.329c-2.151,0.483-2.151,0.483-3.314,0.688l-1.045,0.172
			c10.447-1.629,19.197-9.944,24.16-22.288c1.371,3.656,1.803,5.366,0.884,8.849C105.885,121.3,99.236,125.579,91.748,127.597
			L91.748,127.597z"/>
		<path fill="#010101" d="M90.455,127.926c-2.151,0.483-2.151,0.483-3.314,0.688l-1.045,0.172c4.208-0.656,8.141-2.397,11.661-5.049
			c-1.229,1.828-2.065,2.635-6.01,3.859L90.455,127.926z"/>
		<path fill="#010101" d="M111.14,115.347c0.733-3.062,0.708-4.771-0.884-8.849c2.825-7.025,4.423-15.356,4.409-24.502
			c-0.001-0.591-0.009-1.182-0.023-1.771c3.383-0.519,6.373-1.111,8.863-1.768c0.018,0.589,0.027,1.179,0.028,1.77
			C123.555,94.297,118.844,106.62,111.14,115.347z"/>
		<path fill="#F3C727" d="M103.868,122.694c0.481-0.268,0.958-0.544,1.429-0.828l-0.543,0.325L103.868,122.694z"/>
		<path fill="#010101" d="M129.551,77.993c0.03,19.174-9.891,35.537-24.772,44.184l-0.024,0.015l0.544-0.325
			c14.448-8.703,24.033-24.84,24.004-43.733c-0.001-0.59-0.011-1.181-0.031-1.768c0.086-0.046,0.169-0.093,0.25-0.14
			C129.54,76.812,129.55,77.402,129.551,77.993z"/>
		<path fill="#F3C727" d="M110.193,106.493c-1.891-3.852-3.172-5.901-7.501-11.219c0.435-3.769,0.661-7.766,0.654-11.943
			c-0.001-0.592-0.006-1.182-0.017-1.771c4.063-0.36,7.844-0.805,11.233-1.322c0.015,0.59,0.021,1.18,0.022,1.771
			C114.601,91.147,113.009,99.472,110.193,106.493z"/>
		<path fill="#010101" d="M102.688,95.317c-3.095-3.554-4.648-5.337-11.974-12.949c4.144-0.207,7.416-0.371,12.616-0.834
			c0.01,0.598,0.016,1.197,0.017,1.797C103.354,87.525,103.125,91.536,102.688,95.317L102.688,95.317z"/>
		<path fill="#010101" d="M39.121,80.03c-0.025-0.004-0.051-0.008-0.075-0.012c0.07-3.144,0.34-6.25,0.793-9.292l0.057,0.122
			C39.454,73.856,39.19,76.925,39.121,80.03z"/>
		<path fill="#010101" d="M39.896,70.849l-0.057-0.122c3.277-22.03,16.136-40.745,32.229-46.483l-0.068,0.03
			C55.947,30.06,43.135,48.807,39.896,70.849L39.896,70.849z"/>
		<path fill="#010101" d="M72,24.273l0.068-0.031c1.862-0.664,3.767-1.154,5.705-1.456l0,0C75.812,23.094,73.883,23.594,72,24.273z"
			/>
		<path fill="#F3C727" d="M45.658,40.001c1.869-4.191,3.239-6.285,7.209-9.683c7.393-4.438,15.879-7.145,24.905-7.531
			C65.345,23.911,54.05,30.367,45.658,40.001L45.658,40.001z"/>
		<path fill="#010101" d="M30.869,78.228c-2.176-0.634-3.856-1.313-4.986-2.022C26.475,56.87,37.22,39.714,52.868,30.318
			c-3.7,3.286-5.346,5.242-7.21,9.683C36.874,50.085,31.27,63.65,30.869,78.228z"/>
		<path fill="#F3C727" d="M77.09,82.641c-4.509-0.004-9.082-0.101-13.629-0.298c-0.137-0.006-0.273-0.012-0.41-0.018
			c0.072-9.541,0.844-18.843,2.138-27.171c3.877,4.865,5.911,7.226,11.912,13.49C77.088,73.193,77.084,77.89,77.09,82.641z"/>
		<path fill="#F3C727" d="M65.195,55.116c-3.631-5.05-5.187-7.673-6.688-12.339c4.985-10.516,11.775-17.981,19.265-19.989
			C72.439,25.794,67.779,38.516,65.195,55.116z"/>
		<path fill="#010101" d="M63.051,82.325c-4.669-0.209-9.017-0.514-12.986-0.895c0.223-14.341,3.415-28.049,8.442-38.654
			c1.534,4.476,2.775,7.013,6.688,12.339C63.896,63.454,63.123,72.77,63.051,82.325z"/>
		<path fill="#F3C727" d="M50.063,81.431c-1.489-0.143-2.925-0.297-4.306-0.461c-1.791-2.744-4.02-6.159-5.862-10.121
			C42.188,55.25,49.274,41.303,58.91,32.43c-1.284,3.542-1.541,5.644-0.422,10.387C53.472,53.416,50.287,67.107,50.063,81.431z"/>
		<path fill="#010101" d="M58.488,42.816c-0.963-4.363-1.044-6.588,0.422-10.387c5.578-5.136,12.011-8.572,18.863-9.643
			C70.273,24.798,63.476,32.28,58.488,42.816z"/>
		<path fill="#010101" d="M44.899,52.755c-0.782-5.193-0.784-7.901,0.767-12.763c8.392-9.629,19.683-16.082,32.106-17.205l0,0
			c-2.961,0.497-3.495,0.586-5.704,1.456C60.608,28.329,50.788,38.996,44.899,52.755L44.899,52.755z"/>
		<path fill="#F3C727" d="M58.945,32.358c1.801-3.12,2.983-4.626,7.505-7c3.626-1.339,7.418-2.218,11.322-2.571
			C70.938,23.851,64.518,27.26,58.945,32.358z"/>
		<path fill="#F3C727" d="M39.046,80.018c-3.204-0.538-5.95-1.14-8.177-1.79c0.4-14.582,6.009-28.151,14.798-38.236
			c-1.366,4.519-1.688,7.126-0.767,12.763C41.378,60.985,39.263,70.322,39.046,80.018L39.046,80.018z"/>
		<path fill="#010101" d="M52.918,30.288c3.922-2.826,6.126-4.163,12.237-6.03c4.046-0.962,8.271-1.471,12.617-1.471l0,0
			C68.767,23.173,60.299,25.868,52.918,30.288z"/>
		<path fill="#F3C727" d="M25.883,76.206c-1.123-0.704-1.7-1.437-1.677-2.183l0.091-1.858c1.543-23.363,18.448-42.578,40.858-47.906
			c-5.057,1.604-7.875,2.796-12.237,6.03C37.242,39.677,26.475,56.849,25.883,76.206L25.883,76.206z"/>
		<path fill="#010101" d="M50.064,81.431c-4.064-0.391-7.732-0.863-10.943-1.4c0.217-9.688,2.324-19.02,5.835-27.247
			c1.356,5.401,2.452,8.28,6.268,14.686C50.539,71.993,50.139,76.677,50.064,81.431z"/>
		<path fill="#F3C727" d="M50.063,81.456c0.073-4.778,0.477-9.486,1.167-14.033c3.28,4.882,5.296,7.763,11.82,14.902
			C58.578,82.1,55.347,81.937,50.063,81.456z"/>
		<path fill="#010101" d="M66.45,25.358c2.979-1.205,5.554-2.246,11.323-2.571l0,0C73.868,23.14,70.076,24.02,66.45,25.358z"/>
		<path fill="none" stroke="#010101" stroke-width="0.1" stroke-linecap="round" stroke-linejoin="round" d="M131.533,75.659
			c-0.052,2.879-0.131,7.233-1.67,13.417c-1.391,5.587-3.819,10.503-4.637,11.926c-2.768,4.811-7.917,13.765-20.447,21.175"/>
		<path fill="#010101" stroke="#010101" stroke-width="0.1" stroke-linecap="round" stroke-linejoin="round" d="M129.621,76.172
			c1.368-0.795,2.007-1.595,1.98-2.379c0.735,22.341-11.849,39.675-26.73,48.323l-0.056,0.032l0.563-0.337
			c14.444-8.7,24.026-24.836,23.997-43.729c-0.001-0.59-0.012-1.181-0.031-1.768c0.092-0.05,0.181-0.1,0.268-0.15
			c0.02,0.587,0.03,1.177,0.031,1.768"/>
		<path fill="none" d="M127.948,62.275c-0.002-0.004-0.003-0.008-0.004-0.013c-0.006,0-0.012-0.001-0.018-0.001
			C127.934,62.266,127.94,62.271,127.948,62.275z"/>
		<path fill="#D2242A" d="M103.198,41.714L103.198,41.714L103.198,41.714c0.016-0.003,0.029-0.006,0.044-0.008l-0.002,0
			c0,0,0.012-0.001,0.026-0.004c0.52-0.086,1.008-0.17,1.478-0.253c3.058-0.564,9.723-2.025,9.723-4.046
			c0,0,2.968,2.712,4.959,6.414c0.239,0.403,0.443,0.821,0.599,1.247c0.173,0.424,0.296,0.816,0.359,1.169
			c0.015,0.022,0.03,0.045,0.045,0.068c0.01,0.17,0.009,0.321,0.002,0.461c-0.001,0.059-0.004,0.116-0.011,0.171
			c-0.113,1.149-0.821,1.173-1.586,0.832c-0.081-0.031-0.161-0.059-0.247-0.101c-2.748-1.237-3.644-3.753-4.179-4.793
			c-1.395,0.442-3.702,1.444-5.621,1.817c-0.223,0.044-0.632,0.14-0.861,0.183c2.261,3.725,4.417,8.169,5.963,12.476
			c2.692-2.766,6.905,2.366,7.108,7.322c0.119,2.911-1.189,5.502-3.849,4.569c2.129,3.944,1.447,9.726-2.595,10.991
			c-0.672-12.965-2.869-24.473-11.41-38.491l-0.001,0c0,0,0,0,0.001,0"/>
		<path fill="#D2242A" d="M103.683,31.771c-0.013-0.008-0.025-0.017-0.038-0.025c0.011,0,0.021,0.001,0.031,0.001
			c-0.012-0.04-0.024-0.08-0.031-0.117c0.038-0.051,0.091-0.12,0.129-0.171c0.065-0.008,0.122-0.014,0.175-0.019l-0.011-0.014
			c0,0,0.388-1.631,6.527,2.608c-10.434-8.144-21.019-10.458-27.288-11.072c0.664,0.196,1.165,0.391,1.541,0.577
			c0.328,0.162,0.562,0.317,0.727,0.459c0.016-0.002,0.026-0.005,0.026-0.005c0.762,0.084,1.45,0.217,2.066,0.37l0,0
			c0.001,0,0.001,0,0.001,0c0.223,0.078,0.446,0.159,0.673,0.244c0.028,0.011,0.057,0.021,0.085,0.032
			c0.195,0.074,0.392,0.151,0.589,0.231c0.05,0.02,0.099,0.04,0.148,0.06c0.182,0.075,0.365,0.153,0.549,0.233
			c0.056,0.025,0.112,0.048,0.169,0.073c0.233,0.104,0.469,0.21,0.704,0.323l-0.001,0.009c1.886,0.922,3.41,1.956,3.42,2.748
			c-0.281,0.171-0.366,0.223-1.197,0c3.162,2.255,7.694,6.5,10.373,9.626c1.841-0.348,4.584-0.743,5.852-1.167
			C108.809,36.867,104.233,33.428,103.683,31.771z"/>
		<path fill="#FFFFFF" d="M114.437,37.441c-1.315-1.235-2.642-2.369-3.972-3.407c-2.485-1.716-4.027-2.47-4.983-2.76l0.012-0.012
			c0,0-3.062-0.985-1.331,1.358l0.008-0.008c1.328,1.762,4.652,4.241,4.731,4.162c-1.268,0.424-4.011,0.819-5.852,1.167
			c-2.679-3.126-7.211-7.371-10.373-9.626c0.831,0.224,0.916,0.172,1.197,0c-0.01-0.792-1.534-1.826-3.42-2.748l0.001-0.009
			c-0.235-0.113-0.471-0.22-0.704-0.323c-0.057-0.025-0.113-0.048-0.169-0.073c-0.184-0.08-0.367-0.158-0.549-0.233
			c-0.05-0.02-0.099-0.04-0.148-0.06c-0.197-0.08-0.394-0.157-0.589-0.231c-0.028-0.011-0.057-0.021-0.085-0.032
			c-0.226-0.084-0.45-0.166-0.673-0.244c0,0,0,0-0.001,0c-0.616-0.152-1.305-0.285-2.066-0.37c0,0-0.011,0.002-0.026,0.005
			c0.043,0.038,0.075,0.073,0.109,0.109l-0.202-0.099c0.04-0.002,0.073-0.006,0.093-0.01c-0.165-0.142-0.398-0.297-0.727-0.459
			c-0.376-0.186-0.877-0.38-1.541-0.577c-1.525-0.149-2.793-0.198-3.743-0.205c-0.717-0.027-1.295-0.033-1.418,0.011
			c-0.01,0.003-0.012,0.008-0.013,0.014c-0.221,0.007-0.346,0.017-0.346,0.017l0.238,0.076c-0.135-0.021-0.275-0.044-0.406-0.064
			c0.334,0.055,0.667,0.118,1,0.186c0.833,0.276,2.567,0.738,3.877,1.078c8.025,2.826,15.253,9.151,20.832,17.64
			c0.086-0.013,0.168-0.027,0.252-0.041c4.969-0.834,7.721-1.755,9.692-2.665c0.005-0.002,0.011-0.004,0.016-0.006
			c1.419-0.785,1.262-1.557,1.262-1.557L114.437,37.441z"/>
		<path fill="#D2242A" d="M103.143,41.737L103.143,41.737C103.144,41.736,103.143,41.737,103.143,41.737
			C103.143,41.736,103.144,41.737,103.143,41.737C103.143,41.737,103.144,41.737,103.143,41.737
			c-8.711-12.839-16.721-16.676-24.009-18.558c0.189,0.055,0.378,0.113,0.566,0.174c-0.341-0.091-0.686-0.182-0.991-0.261
			c-0.088-0.029-0.169-0.056-0.241-0.08c0.222,0.054,0.443,0.109,0.666,0.167c-0.253-0.073-0.51-0.14-0.774-0.204
			c-0.09-0.03-0.161-0.055-0.212-0.074c0.021,0.012,0.045,0.025,0.074,0.042c-0.168-0.039-0.337-0.076-0.514-0.111l0,0l0,0
			c1.561,1.723,3.743,2.451,4.271,2.608c-0.15,0.646-0.039,1.937,2.214,3.566c0.35,0.253,0.687,0.452,1.012,0.613
			c3.474,1.815,4.24,0.402,4.403-0.165c0.02-0.016,0.041-0.028,0.06-0.045c1.061,0.782,3.124,2.442,5.405,5.025
			c1.313,1.578,2.553,2.953,3.486,4.332c-2.146,0.271-4.99,0.524-7.808,0.725c-0.159-3.408-2.617-5.109-4.165-5.684
			c-3.385-1.258-4.498,2.727-3.032,5.527c-2.68-1.449-5.849-0.158-6.294,4.074C87.845,43.347,95.101,42.878,103.143,41.737
			C103.144,41.736,103.144,41.736,103.143,41.737c0.001,0,0.001-0.001,0.001-0.001L103.143,41.737z"/>
		<path fill="#010101" d="M77.101,68.644c-5.255-5.512-8.071-8.604-11.912-13.49c2.583-16.618,7.246-29.356,12.584-32.366l0,0l0,0
			C77.429,26.697,77.162,45.825,77.101,68.644L77.101,68.644z"/>
	</g>
	<path fill="#010101" d="M13.456,36.24l0.307,0.152c-0.521,1.088-0.276,1.691,0.755,2.203l4.354,2.16
		c2,0.992,3.513,3.33,1.777,6.829c-1.527,3.08-4.069,3.788-6.375,2.644l-4.709-2.335c-1.031-0.512-1.337-0.302-1.896,0.787
		l-0.307-0.152l2.056-4.144l0.307,0.152l-0.072,0.145c-0.44,0.887-0.391,1.394,0.545,1.858l4.482,2.224
		c2.178,1.08,4.115,0.454,5.308-1.949c0.903-1.822,1.064-4.052-1.677-5.412l-3.757-1.864c-1.548-0.768-1.941-0.662-2.67,0.645
		l-0.307-0.152L13.456,36.24z"/>
	<path fill="#010101" d="M32.09,30.902l-13.469,0.844l5.905,4.976c0.991,0.835,1.383,0.789,2.369-0.381l0.262,0.221l-2.691,3.193
		l-0.262-0.221l0.047-0.055c0.719-0.854,0.662-1.373,0.028-1.906l-6.772-5.707c-0.486,0.131-0.898,0.396-1.318,0.866l-0.262-0.221
		l1.821-2.161l12.222-0.788l-5.479-4.616c-0.84-0.708-1.2-0.587-2.155,0.491l-0.262-0.221l2.714-3.221l0.262,0.22
		c-0.87,1.032-0.876,1.403-0.34,1.855l7.682,6.472L32.09,30.902z"/>
	<path fill="#010101" d="M38.641,25.109l-3.366,2.794l-0.218-0.263c0.824-0.754,0.82-1.126,0.05-2.054l-4.897-5.9
		c-0.621-0.748-1.057-0.737-1.867-0.135l-0.218-0.263l3.365-2.794l0.219,0.263c-0.873,0.725-1.017,1.171-0.246,2.099l4.874,5.872
		c0.679,0.817,1.13,0.91,2.086,0.117L38.641,25.109z"/>
	<path fill="#010101" d="M45.271,20.983l-8.294-6.426c-0.962-0.751-1.284-0.875-2.231-0.319l-0.173-0.295l4.271-2.503l0.173,0.295
		c-1.411,0.869-1.562,1.395-0.848,1.936l6.873,5.319l-1.306-7.852c-0.084-0.535-0.173-0.9-0.3-1.117
		c-0.273-0.466-0.771-0.425-1.827,0.194L41.436,9.92l3.604-2.111l0.172,0.295c-0.807,0.473-1.008,1.092-0.816,2.273l1.652,10.152
		L45.271,20.983z"/>
	<path fill="#010101" d="M58.493,10.426l-0.323,0.111c-0.553-1.161-0.923-1.186-1.621-0.945l-2.875,0.992l1.25,3.625
		c0.27,0.783,0.611,0.836,1.241,0.619l2.62-0.903c1.191-0.411,1.391-0.994,1.312-2.604l0.306-0.105l0.603,2.629l-9.036,3.116
		l-0.111-0.323l0.477-0.165c1.361-0.469,1.471-0.926,1.118-1.947l-2.477-7.181c-0.328-0.953-0.69-1.285-1.831-0.892l-0.374,0.129
		l-0.111-0.323l8.168-2.817l0.952,2.318l-0.307,0.105c-0.72-1.37-1.251-1.529-1.864-1.318l-3.59,1.238l1.443,4.186l3.046-1.05
		c0.612-0.211,0.803-0.601,0.547-1.617l0.323-0.111L58.493,10.426z"/>
	<path fill="#010101" d="M65.32,1.726c0.317-0.074,0.55-0.102,0.89-0.142c2.753-0.328,3.656,0.87,3.854,2.532
		c0.255,2.145-0.95,3.141-2.934,3.376c-0.411,0.049-0.678,0.099-1.112,0.097L65.32,1.726z M66.059,7.928
		c0.288-0.016,0.522-0.025,0.916-0.072c0.482-0.058,0.766-0.109,1.211-0.181c0.463,0.235,1.15,0.679,2.03,1.372l1.32,1.039
		c1.779,1.401,2.665,1.985,5.775,1.47l-0.038-0.321c-1.387,0.074-2.556-0.457-3.736-1.387l-1.58-1.244
		c-0.939-0.739-1.535-1.177-2.258-1.616c1.414-0.604,2.191-1.838,2.032-3.179c-0.217-1.822-1.862-3.005-5.169-2.611
		c-1.161,0.139-1.517,0.198-2.245,0.321s-1.811,0.324-2.239,0.376l0.04,0.339l0.394-0.047c1.036-0.123,1.379,0.163,1.511,1.271
		l0.895,7.525c0.143,1.197-0.198,1.528-1.253,1.654l-0.304,0.036l0.04,0.34l5.059-0.602l-0.041-0.34l-0.411,0.049
		c-1.001,0.119-1.462-0.098-1.589-1.171L66.059,7.928z"/>
	<path fill="#010101" d="M79.891,8.961c0.252,1.626,1.436,2.658,2.836,2.767c1.201,0.094,2.53-0.506,2.641-1.924
		c0.202-2.584-5.496-3.823-5.252-6.964c0.117-1.489,1.568-2.496,3.398-2.353c1.507,0.118,1.777,0.59,2.405,0.639
		c0.144,0.011,0.218-0.019,0.337-0.154l0.287,0.022l0.127,2.303l-0.305-0.023c-0.402-1.332-1.486-2.247-2.725-2.343
		c-1.184-0.092-2.062,0.525-2.141,1.53c-0.199,2.548,5.508,3.68,5.25,6.982c-0.138,1.759-1.801,2.947-3.9,2.783
		c-0.987-0.077-2.205-0.66-2.457-0.679c-0.161-0.013-0.294,0.067-0.374,0.169l-0.306-0.024L79.55,8.935L79.891,8.961z"/>
	<path fill="#010101" d="M93.73,13.683l-4.273-0.931l0.072-0.334c1.102,0.185,1.392-0.047,1.648-1.226L92.811,3.7
		c0.207-0.95-0.07-1.286-1.043-1.554l0.072-0.334l4.274,0.931l-0.073,0.334c-1.108-0.241-1.549-0.08-1.806,1.099l-1.624,7.457
		c-0.227,1.038-0.021,1.451,1.191,1.715L93.73,13.683z"/>
	<path fill="#010101" d="M102.804,14.974c-0.358,0.903-0.183,1.341,0.838,1.746l0.619,0.246l-0.126,0.318l-5.271-2.09l0.127-0.318
		l0.619,0.245c1.021,0.405,1.447,0.207,1.806-0.697l3.277-8.266l-2.911-1.154c-0.67-0.266-1.123,0-1.958,1.373l-0.302-0.12
		l1.343-2.604l0.318,0.126c-0.023,0.107,0.017,0.201,0.104,0.274c0.087,0.073,0.197,0.136,0.314,0.183l8.049,3.191
		c0.234,0.093,0.505,0.142,0.618-0.045l0.317,0.126l-0.807,2.817l-0.301-0.12c0.332-1.572,0.184-2.076-0.485-2.341l-2.912-1.154
		L102.804,14.974z"/>
	<path fill="#010101" d="M121.13,16.147c1.029-0.503,0.915-0.948-0.043-1.587l0.189-0.285l3.383,2.26l-0.19,0.284
		c-1.067-0.605-1.771-0.491-2.66-0.067l-5.295,2.545l-1.5,2.245c-0.53,0.793-0.456,1.297,0.457,1.907l0.194,0.13l-0.189,0.285
		l-4.116-2.75l0.19-0.285l0.284,0.19c0.928,0.62,1.428,0.456,1.917-0.277l1.41-2.11l0.116-5.941c0.037-1.642-0.167-2.082-1.12-2.762
		l0.19-0.284l3.98,2.66l-0.189,0.285c-1.168-0.78-1.433-0.546-1.443,0.443l-0.076,5.297L121.13,16.147z"/>
	<path fill="#010101" d="M136.001,37.583c-2.033,1.55-4.945,2.005-6.725-0.328c-1.757-2.305-1.254-5.563,1.422-7.604
		c1.718-1.31,4.829-2.098,6.75,0.421C139.25,32.434,138.663,35.553,136.001,37.583z M137.499,38.568
		c2.576-1.965,2.654-5.692,0.592-8.397c-2.325-3.048-6.014-3.699-8.862-1.527c-2.676,2.042-2.679,5.778-0.539,8.583
		C130.807,40.004,134.607,40.773,137.499,38.568z"/>
	<path fill="#010101" d="M141.274,49.818l-0.132-0.276c0.927-0.481,1.057-0.963,0.685-1.742l-1.434-3.006l-3.558,1.698
		c-0.91,0.434-1.158,0.791-0.577,2.01l-0.309,0.147l-1.884-3.948l0.309-0.146c0.546,0.976,0.843,1.054,2.158,0.426l6.368-3.038
		c1.04-0.496,1.473-0.803,0.945-1.947l0.31-0.147l3.473,7.278l-1.917,0.914l-0.132-0.275c0.935-0.466,1.169-0.978,0.688-1.984
		l-1.473-3.087l-3.817,1.822l1.534,3.216c0.287,0.602,0.768,0.731,1.489,0.446l0.132,0.276L141.274,49.818z"/>
	<path fill="#010101" d="M15.271,120.269l6.479-11.946l-0.027-0.037l-8.742,5.575c-0.99,0.633-0.682,1.488-0.111,2.354l-0.354,0.257
		l-2.809-3.873l0.354-0.256c0.985,1.358,1.405,1.311,3.167,0.174l7.565-4.807c1.283-0.817,1.591-1.098,0.828-2.306l0.335-0.243
		l2.04,2.811l-6.128,11.294l12.624-2.339l1.985,2.736l-0.335,0.243c-0.736-0.858-1.012-1.198-1.617-0.702l-8.001,6.715
		c-1.632,1.354-1.524,1.503-0.538,2.862l-0.354,0.256l-3.472-4.784l0.354-0.257c0.635,0.875,1.498,1.556,2.431,0.766l7.948-6.591
		l-0.027-0.037l-13.285,2.563L15.271,120.269z"/>
	<path fill="#010101" d="M38.057,132.714l-3.205-2.357l4.75-3.16L38.057,132.714z M37.772,133.761l-1.239,4.285
		c-0.062,0.239-0.137,0.613-0.354,0.909c-0.382,0.519-0.853,0.344-1.908-0.433l-0.482-0.354l-0.259,0.352l5.096,3.748l0.259-0.353
		c-0.927-0.681-1.18-1.152-0.828-2.407l3.691-13.132l-1.612-1.186l-0.133,0.531l-10.146,6.729c-1.778,1.176-2.132,1.229-3.35,0.361
		l-0.259,0.354l4.28,3.146l0.259-0.352l-0.297-0.218c-1.019-0.749-1.364-1.289-0.996-1.79c0.19-0.259,0.84-0.638,1.229-0.895
		l3.214-2.118L37.772,133.761z"/>
	<path fill="#010101" d="M52.528,133.436c0.405,0.095,0.688,0.194,1.099,0.341c3.339,1.185,3.695,3.067,2.98,5.084
		c-0.923,2.601-2.867,3.059-5.272,2.205c-0.499-0.177-0.832-0.271-1.329-0.521L52.528,133.436z M49.859,140.957
		c0.34,0.145,0.614,0.267,1.091,0.436c0.585,0.207,0.939,0.309,1.489,0.479c0.397,0.531,0.933,1.429,1.548,2.722l0.924,1.938
		c1.244,2.613,1.928,3.783,5.783,4.956l0.138-0.391c-1.631-0.7-2.668-1.972-3.493-3.704l-1.105-2.32
		c-0.657-1.38-1.092-2.218-1.671-3.131c1.962,0.11,3.552-0.863,4.128-2.488c0.785-2.211-0.43-4.497-4.44-5.92
		c-1.408-0.499-1.85-0.632-2.754-0.903c-0.904-0.272-2.257-0.654-2.777-0.839l-0.146,0.412l0.478,0.169
		c1.257,0.446,1.487,0.967,1.01,2.311l-3.236,9.126c-0.516,1.452-1.094,1.638-2.373,1.185l-0.368-0.131l-0.146,0.411l6.135,2.177
		l0.146-0.412l-0.499-0.177c-1.214-0.431-1.619-0.94-1.157-2.241L49.859,140.957z"/>
	<path fill="#010101" d="M75.953,140.472c0.841-1.198,0.438-1.625-1.028-1.75l0.037-0.436l5.179,0.441l-0.037,0.436
		c-1.567-0.019-2.284,0.544-3.019,1.566l-4.353,6.115l-0.293,3.438c-0.104,1.215,0.291,1.733,1.689,1.853l0.298,0.025l-0.037,0.436
		l-6.303-0.537l0.037-0.436l0.436,0.037c1.421,0.121,1.878-0.371,1.974-1.494l0.275-3.231l-3.536-6.718
		c-0.973-1.86-1.473-2.227-2.958-2.399l0.037-0.436l6.096,0.52l-0.037,0.436c-1.787-0.152-1.938,0.273-1.341,1.387l3.184,5.973
		L75.953,140.472z"/>
	<path fill="#010101" d="M95.069,150.806l-10.138,1.712l-0.072-0.431l0.748-0.127c1.043-0.176,1.371-0.581,1.176-1.738
		l-1.696-10.046c-0.203-1.202-0.65-1.64-2.079-1.398l-0.316,0.054l-0.074-0.432l6.69-1.13l0.073,0.432l-0.839,0.142
		c-1.475,0.249-1.833,0.473-1.596,1.879l1.766,10.455c0.104,0.612,0.391,0.797,1.049,0.686l3.334-0.563
		c1.338-0.226,1.658-0.816,2.754-3.03l0.408-0.069L95.069,150.806z"/>
	<path fill="#010101" d="M106.048,139.314l-3.672,1.533l-0.262-5.698L106.048,139.314z M106.799,140.098l3.035,3.269
		c0.174,0.176,0.455,0.433,0.598,0.772c0.248,0.594-0.145,0.907-1.354,1.413l-0.552,0.23l0.169,0.403l5.835-2.438l-0.168-0.403
		c-1.061,0.443-1.596,0.417-2.489-0.53l-9.356-9.926l-1.847,0.771l0.387,0.388l0.544,12.161c0.092,2.13-0.044,2.461-1.415,3.059
		l0.169,0.403l4.902-2.049l-0.168-0.402l-0.34,0.142c-1.167,0.487-1.808,0.506-2.047-0.067c-0.125-0.297-0.114-1.049-0.135-1.515
		l-0.161-3.846L106.799,140.098z"/>
	<path fill="#010101" d="M131.679,131.183l-17.124-2.021l6.284,7.606c1.056,1.276,1.559,1.309,3.065,0.062l0.278,0.338l-4.113,3.398
		l-0.278-0.337l0.071-0.059c1.099-0.908,1.146-1.574,0.472-2.39l-7.208-8.723c-0.642,0.054-1.22,0.292-1.855,0.787l-0.278-0.337
		l2.784-2.3l15.544,1.805l-5.831-7.056c-0.894-1.082-1.374-1.014-2.821,0.123l-0.278-0.337l4.148-3.429l0.278,0.338
		c-1.329,1.099-1.423,1.563-0.852,2.255l8.175,9.894L131.679,131.183z"/>
	<path fill="#010101" d="M128.315,113.477c0.13-0.244,0.409-0.804,0.921-1.596c1.748-2.704,3.311-3.639,4.773-3.953
		c1.876-0.402,3.723,0.215,5.152,1.14c1.989,1.285,2.902,3.136,3.136,4.3c0.423,1.972,0.092,3.29-1.581,5.878
		c-0.986,1.526-1.295,1.41-2.087,0.898L128.315,113.477z M137.246,121.521c1.12,0.724,1.099,1.395,0.424,2.438l-0.213,0.328
		l0.367,0.237l3.996-6.181c3.158-4.888,1.123-9.407-1.794-11.292c-3.188-2.061-7.236-1.474-10.532,3.626
		c-0.649,1.005-1.392,2.195-2.04,3.283c-0.647,1.087-1.221,2.059-1.645,2.799l0.367,0.237l0.25-0.387
		c0.736-1.14,1.258-1.269,2.514-0.457L137.246,121.521z"/>
	<path fill="#010101" d="M4.125,71.379v9.854c0,0.51,0.103,0.646,0.629,0.646h0.952v0.312h-4.27v-0.312h0.918
		C2.898,81.879,3,81.726,3,81.216v-8.477c-0.544,0.476-1.496,1.104-2.125,1.393l-0.136-0.238c0.985-0.663,2.396-1.937,2.798-2.515
		H4.125z"/>
	<path fill="#010101" d="M13.957,79.787c0,1.325-0.972,2.345-2.251,2.345c-1.297,0-2.252-1.07-2.252-2.515
		c0-1.104,0.58-1.954,1.74-2.582C13.173,77.936,13.957,78.649,13.957,79.787z M14.701,73.828c0-1.358-1.365-2.445-3.067-2.445
		c-1.68,0-3.086,1.257-3.086,2.751c0,1.154,0.729,2.02,2.32,2.732c-1.667,0.663-2.477,1.596-2.477,2.786
		c0,1.546,1.455,2.787,3.297,2.787c1.894,0,3.356-1.36,3.356-3.127c0-1.309-0.765-2.208-2.555-3.006
		C13.983,75.711,14.701,74.914,14.701,73.828z M13.676,73.811c0,0.967-0.474,1.748-1.421,2.342
		c-2.199-0.934-2.707-1.612-2.707-2.546c0-1.069,0.914-1.918,2.081-1.918C12.813,71.689,13.676,72.588,13.676,73.811z"/>
	<path fill="#010101" d="M140.962,72.598h4.021c0.306,0,0.408-0.068,0.493-0.219h0.323l-0.188,1.312h-4.295l-0.136,3.044
		c0.526-0.285,1.138-0.419,1.833-0.419c1.901,0,3.482,1.586,3.482,3.5c0,2.061-1.717,3.624-3.991,3.624
		c-1.357,0-2.479-0.475-2.479-1.07c0-0.29,0.255-0.528,0.562-0.528c0.915,0,1.238,1.192,2.308,1.192c1.256,0,2.325-1.312,2.325-2.86
		c0-1.566-1.069-2.733-2.529-2.733c-0.628,0-1.29,0.248-1.798,0.68l-0.17-0.118L140.962,72.598z"/>
	<path fill="#010101" d="M153.896,80.163c0,1.924-0.816,2.997-2.007,2.997c-1.07,0-2.312-0.937-2.312-3.798
		c0-0.578,0.034-0.816,0.085-1.055c1.037-0.834,1.802-1.022,2.244-1.022C153.045,77.286,153.896,78.341,153.896,80.163z
		 M153.997,72.379c-3.553,1.002-5.695,3.498-5.695,6.643c0,2.605,1.462,4.419,3.554,4.419c1.818,0,3.315-1.559,3.315-3.432
		c0-1.737-1.344-3.13-3.01-3.13c-0.833,0-1.496,0.271-2.414,0.985c0.374-2.481,1.785-4.147,4.438-5.235L153.997,72.379z"/>
</g>
</svg>
