<?xml version="1.0" encoding="utf-8"?>
<!-- Generator: Adobe Illustrator 15.0.0, SVG Export Plug-In . SVG Version: 6.00 Build 0)  -->
<!DOCTYPE svg PUBLIC "-//W3C//DTD SVG 1.1//EN" "http://www.w3.org/Graphics/SVG/1.1/DTD/svg11.dtd">
<svg version="1.1" id="Layer_1" xmlns="http://www.w3.org/2000/svg" xmlns:xlink="http://www.w3.org/1999/xlink" x="0px" y="0px"
	 width="170.08px" height="113.39px" viewBox="0 0 170.08 113.39" enable-background="new 0 0 170.08 113.39" xml:space="preserve">
<g>
	<path fill-rule="evenodd" clip-rule="evenodd" fill="#606161" d="M84.915,60.838L77.6,63.786l-0.259-0.784l-22.05,8.89
		c-0.569,0.206-0.949,0.747-0.949,1.352v34.86l0.866,0.497v4.541l-5.818,0.005v-7.29l0.743,0.199V73.271
		c0-2.522,1.698-4.731,4.139-5.384l21.767-8.821L75.751,58.2l9.164-3.694l9.188,3.803l-0.279,0.841l21.667,8.878
		c2.301,0.812,4.209,2.146,4.209,5.366l-0.124,33.161l0.747-0.339v7.169h-5.818v-4.465l0.868-0.438l0.117-35.238
		c0-0.605-0.678-1.125-1.247-1.332l-21.752-8.91l-0.259,0.785L84.915,60.838L84.915,60.838z"/>
	<polygon fill-rule="evenodd" clip-rule="evenodd" fill="#606161" points="84.915,72.011 80.831,73.652 80.558,72.727 
		64.491,79.204 64.491,111.523 65.357,111.921 65.357,113.156 59.54,113.137 59.54,110.291 60.282,110.311 60.282,76.354 
		79.23,68.715 78.959,67.896 84.915,65.5 90.86,68.046 90.612,68.791 109.425,76.605 109.425,110.468 110.04,110.544 
		110.04,113.386 104.225,113.386 104.225,112.054 105.216,111.592 105.216,79.386 89.275,72.805 88.99,73.66 84.915,72.011 	"/>
	<path fill-rule="evenodd" clip-rule="evenodd" fill="#606161" d="M84.915,43.749l-12.304,4.96l0.249,0.754l-23.912,9.644
		c-5.468,2.545-8.965,8.023-8.965,14.046v26.62l-0.744-0.457v13.17c1.925,0.287,3.889,0.461,5.825,0.506l-0.006-9.818l-0.99-0.696
		V72.752c0-0.005,0-0.011,0-0.016c0-4.14,2.404-7.907,6.163-9.656l23.913-9.739l0.297,0.896l10.475-4.224L95.438,54.3l0.31-0.931
		l23.827,9.815c3.615,2.035,5.959,5.301,6.188,9.555c0.001,0.006,0,0.011,0,0.016l-0.157,30.183l-0.948,0.725l-0.076,9.724
		c1.936-0.045,3.942-0.238,5.867-0.525l0.043-13.027l-0.643,0.314l0.1-27.638c-0.1-5.507-3.713-10.74-9.037-13.257l-23.859-9.662
		l0.239-0.855L84.915,43.749L84.915,43.749z"/>
	<polygon fill-rule="evenodd" clip-rule="evenodd" fill="#606161" points="88.876,113.386 88.876,90.218 84.915,88.491 
		80.831,90.138 80.831,113.386 88.876,113.386 	"/>
	<polygon fill-rule="evenodd" clip-rule="evenodd" fill="#606161" points="84.915,81.876 94.942,86.062 94.942,113.386 
		99.026,113.386 99.026,83.322 87.479,78.602 87.498,77.65 84.915,76.602 82.127,77.726 82.327,78.575 70.681,83.271 
		70.681,113.386 74.643,113.386 74.643,86.019 84.915,81.876 	"/>
	<path fill-rule="evenodd" clip-rule="evenodd" fill="#606161" d="M84.915,39.154l-13.646,5.5l-0.271-0.818l-24.526,9.938
		C38.877,57.31,34.02,64.92,34.02,73.284v22.472l1.01,0.736l0.001,15.166c-2.053-0.509-4.096-1.167-6.066-1.946l0-17.177
		l0.867,0.397V73.476c0-10.668,6.492-20.272,16.401-24.271l23.414-9.456l-0.249-0.753l15.518-6.256l15.589,6.352l-0.252,0.756
		l23.982,9.792c9.909,4.276,15.889,13.17,15.889,23.838v19.934l0.833-0.298l-0.21,16.959c-1.97,0.779-3.884,1.456-5.937,1.965
		l0.12-15.076l0.861-0.576l0.24-23.1c-0.399-8.364-5.178-16.173-12.812-19.468l-24.326-9.889l-0.259,0.776L84.915,39.154
		L84.915,39.154z"/>
	<path fill-rule="evenodd" clip-rule="evenodd" fill="#606161" d="M84.915,28.12l-16.867,6.801l-0.274-0.829L43.332,44.149
		c-8.301,3.63-18.451,10.824-19.442,29.453v15.489l0.991,0.709l-0.138,17.705c-2.435-0.832-4.268-2.146-5.928-3.534V85.899
		l1.025,0.426l-0.033-10.059c-0.003-22.833,12.489-32.72,24.26-36.935l22.414-9.148l-0.261-0.789l18.767-7.591l18.721,7.666
		l-0.261,0.782l24.814,10.145c7.217,2.675,20.577,12.168,22.012,31.597l0.008,14.845l0.984-0.318l-0.245,17.958
		c-1.401,0.995-3.52,2.64-5.968,3.719l0.15-17.991l0.985-0.737v-17.24c-0.58-6.989-3.311-21.285-19.946-28.254l-24.088-9.838
		l-0.282,0.846L84.915,28.12L84.915,28.12z"/>
	<path fill-rule="evenodd" clip-rule="evenodd" fill="#606161" d="M85.034,17.321L64.91,25.436l-0.418-0.822L39.289,34.99
		c-10.935,4.316-24.207,17.269-25.201,36.818l-0.101,10.649l0.866,0.667l-0.245,17.124c-2.937-2.328-4.476-4.331-5.943-6.381
		l0.123-14.784l0.867,0.549l0.16-7.24c0.692-22.979,15.153-36.177,29.424-41.981l24.039-9.909L63.012,19.7l21.904-8.832l21.93,8.853
		l-0.189,0.899l23.193,9.52c10.273,3.566,29.262,16.546,30.451,40.535v9.342l0.921-0.48l-0.003,14.766
		c-0.918,1.357-3.147,4.379-6.014,6.753l0.146-17.546l0.865-0.652l-0.13-11.618c-0.89-14.656-9.524-30.69-29.57-37.998
		l-21.149-8.748l-0.329,0.986L85.034,17.321L85.034,17.321z"/>
	<path fill-rule="evenodd" clip-rule="evenodd" fill="#606161" d="M3.836,75.794l0.231-7.658
		c4.296-29.538,26.198-41.197,35.463-44.195l21.908-8.994l0.25,0.754l23.304-9.38l23.277,9.454l0.25-0.75l18.178,7.348
		c31.822,10.85,38.779,35.035,39.673,49.72l-0.004,3.977l-0.903,0.778l0.04,9.788c4.319-7.192,4.576-17.49,4.576-20.021
		c-4.481-32.63-30.556-44.03-40.049-47.343l-20.192-8.205l0.282-0.849L85.097,0L59.862,10.181l0.272,0.823l-20.715,8.54
		C17.879,26.988,2.587,44.098,0,66.984c0,6.5,1.385,12.937,4.044,18.862c0.135,0.269,0.313,0.451,0.532,0.555V76.37L3.836,75.794
		L3.836,75.794z"/>
</g>
</svg>
