<?xml version="1.0" encoding="UTF-8" standalone="no"?>
<!DOCTYPE svg PUBLIC "-//W3C//DTD SVG 1.1//EN" "http://www.w3.org/Graphics/SVG/1.1/DTD/svg11.dtd">
<svg width="100%" height="100%" viewBox="0 0 291 83" version="1.1" xmlns="http://www.w3.org/2000/svg" xmlns:xlink="http://www.w3.org/1999/xlink" xml:space="preserve" xmlns:serif="http://www.serif.com/" style="fill-rule:evenodd;clip-rule:evenodd;stroke-linejoin:round;stroke-miterlimit:2;">
    <g id="Artboard1" transform="matrix(1,0,0,1,-377.902,-1067.04)">
        <rect x="377.902" y="1067.04" width="290.394" height="82.875" style="fill:none;"/>
        <g transform="matrix(1,0,0,1,-214.231,227.704)">
            <g transform="matrix(0.913773,0,0,0.913773,112.916,-239.407)">
                <g transform="matrix(48,0,0,48,528.909,1221.13)">
                    <path d="M0.281,-0C0.231,-0.108 0.183,-0.221 0.137,-0.339C0.09,-0.457 0.047,-0.575 0.007,-0.693L0.146,-0.693C0.162,-0.646 0.178,-0.599 0.195,-0.55C0.212,-0.501 0.228,-0.454 0.245,-0.407C0.262,-0.36 0.278,-0.314 0.295,-0.27C0.312,-0.226 0.328,-0.186 0.344,-0.149C0.359,-0.186 0.375,-0.226 0.392,-0.27C0.409,-0.313 0.426,-0.359 0.443,-0.406C0.46,-0.453 0.476,-0.501 0.493,-0.55C0.51,-0.599 0.526,-0.646 0.541,-0.693L0.676,-0.693C0.635,-0.575 0.592,-0.457 0.546,-0.339C0.5,-0.221 0.452,-0.108 0.402,-0L0.281,-0Z" style="fill:rgb(122,122,117);fill-rule:nonzero;"/>
                </g>
                <g transform="matrix(48,0,0,48,559.773,1221.13)">
                    <path d="M0.048,-0.259C0.048,-0.305 0.055,-0.345 0.069,-0.38C0.082,-0.415 0.1,-0.444 0.123,-0.467C0.146,-0.49 0.172,-0.507 0.201,-0.519C0.23,-0.53 0.26,-0.536 0.291,-0.536C0.363,-0.536 0.419,-0.514 0.46,-0.469C0.5,-0.424 0.52,-0.358 0.52,-0.269C0.52,-0.262 0.52,-0.255 0.52,-0.247C0.519,-0.238 0.519,-0.231 0.518,-0.224L0.173,-0.224C0.176,-0.182 0.191,-0.15 0.218,-0.127C0.244,-0.103 0.282,-0.092 0.332,-0.092C0.361,-0.092 0.388,-0.095 0.413,-0.1C0.437,-0.105 0.456,-0.111 0.47,-0.117L0.486,-0.018C0.479,-0.015 0.47,-0.011 0.459,-0.008C0.447,-0.004 0.434,-0.001 0.419,0.003C0.404,0.006 0.387,0.008 0.37,0.01C0.353,0.012 0.335,0.013 0.317,0.013C0.271,0.013 0.231,0.006 0.197,-0.008C0.163,-0.021 0.135,-0.04 0.113,-0.065C0.091,-0.089 0.075,-0.118 0.064,-0.151C0.053,-0.184 0.048,-0.22 0.048,-0.259ZM0.399,-0.313C0.399,-0.33 0.397,-0.345 0.392,-0.361C0.387,-0.376 0.381,-0.389 0.372,-0.4C0.363,-0.411 0.352,-0.419 0.339,-0.426C0.326,-0.432 0.31,-0.435 0.292,-0.435C0.273,-0.435 0.257,-0.432 0.243,-0.425C0.229,-0.418 0.217,-0.408 0.208,-0.397C0.198,-0.386 0.19,-0.373 0.185,-0.358C0.18,-0.343 0.176,-0.328 0.174,-0.313L0.399,-0.313Z" style="fill:rgb(122,122,117);fill-rule:nonzero;"/>
                </g>
                <g transform="matrix(48,0,0,48,587.181,1221.13)">
                    <path d="M0.077,-0.506C0.1,-0.513 0.131,-0.519 0.168,-0.525C0.205,-0.531 0.247,-0.534 0.292,-0.534C0.335,-0.534 0.37,-0.528 0.399,-0.517C0.428,-0.505 0.451,-0.489 0.468,-0.468C0.485,-0.447 0.497,-0.421 0.504,-0.392C0.511,-0.362 0.514,-0.329 0.514,-0.294L0.514,-0L0.393,-0L0.393,-0.275C0.393,-0.303 0.391,-0.327 0.388,-0.347C0.384,-0.366 0.378,-0.382 0.37,-0.395C0.361,-0.407 0.35,-0.416 0.336,-0.422C0.321,-0.427 0.304,-0.43 0.283,-0.43C0.268,-0.43 0.252,-0.429 0.235,-0.427C0.218,-0.425 0.206,-0.423 0.198,-0.422L0.198,-0L0.077,-0L0.077,-0.506Z" style="fill:rgb(122,122,117);fill-rule:nonzero;"/>
                </g>
                <g transform="matrix(48,0,0,48,615.261,1221.13)">
                    <path d="M0.048,-0.259C0.048,-0.305 0.055,-0.345 0.069,-0.38C0.082,-0.415 0.1,-0.444 0.123,-0.467C0.146,-0.49 0.172,-0.507 0.201,-0.519C0.23,-0.53 0.26,-0.536 0.291,-0.536C0.363,-0.536 0.419,-0.514 0.46,-0.469C0.5,-0.424 0.52,-0.358 0.52,-0.269C0.52,-0.262 0.52,-0.255 0.52,-0.247C0.519,-0.238 0.519,-0.231 0.518,-0.224L0.173,-0.224C0.176,-0.182 0.191,-0.15 0.218,-0.127C0.244,-0.103 0.282,-0.092 0.332,-0.092C0.361,-0.092 0.388,-0.095 0.413,-0.1C0.437,-0.105 0.456,-0.111 0.47,-0.117L0.486,-0.018C0.479,-0.015 0.47,-0.011 0.459,-0.008C0.447,-0.004 0.434,-0.001 0.419,0.003C0.404,0.006 0.387,0.008 0.37,0.01C0.353,0.012 0.335,0.013 0.317,0.013C0.271,0.013 0.231,0.006 0.197,-0.008C0.163,-0.021 0.135,-0.04 0.113,-0.065C0.091,-0.089 0.075,-0.118 0.064,-0.151C0.053,-0.184 0.048,-0.22 0.048,-0.259ZM0.399,-0.313C0.399,-0.33 0.397,-0.345 0.392,-0.361C0.387,-0.376 0.381,-0.389 0.372,-0.4C0.363,-0.411 0.352,-0.419 0.339,-0.426C0.326,-0.432 0.31,-0.435 0.292,-0.435C0.273,-0.435 0.257,-0.432 0.243,-0.425C0.229,-0.418 0.217,-0.408 0.208,-0.397C0.198,-0.386 0.19,-0.373 0.185,-0.358C0.18,-0.343 0.176,-0.328 0.174,-0.313L0.399,-0.313Z" style="fill:rgb(122,122,117);fill-rule:nonzero;"/>
                </g>
                <g transform="matrix(48,0,0,48,642.669,1221.13)">
                    <path d="M0.443,-0.438C0.43,-0.424 0.412,-0.404 0.391,-0.379C0.369,-0.354 0.346,-0.326 0.321,-0.295C0.296,-0.264 0.272,-0.231 0.247,-0.198C0.222,-0.164 0.199,-0.132 0.179,-0.101L0.449,-0.101L0.449,-0L0.033,-0L0.033,-0.075C0.048,-0.102 0.066,-0.131 0.088,-0.162C0.11,-0.193 0.133,-0.225 0.156,-0.257C0.179,-0.288 0.203,-0.318 0.226,-0.347C0.249,-0.376 0.269,-0.401 0.287,-0.422L0.046,-0.422L0.046,-0.523L0.443,-0.523L0.443,-0.438Z" style="fill:rgb(122,122,117);fill-rule:nonzero;"/>
                </g>
                <g transform="matrix(48,0,0,48,665.373,1221.13)">
                    <path d="M0.506,-0.016C0.483,-0.01 0.452,-0.004 0.415,0.003C0.378,0.009 0.337,0.012 0.292,0.012C0.25,0.012 0.215,0.006 0.187,-0.006C0.158,-0.018 0.136,-0.035 0.119,-0.056C0.101,-0.077 0.089,-0.103 0.082,-0.133C0.075,-0.162 0.071,-0.195 0.071,-0.23L0.071,-0.523L0.192,-0.523L0.192,-0.249C0.192,-0.193 0.2,-0.153 0.217,-0.129C0.233,-0.105 0.261,-0.093 0.302,-0.093C0.317,-0.093 0.332,-0.094 0.349,-0.095C0.365,-0.096 0.377,-0.098 0.385,-0.1L0.385,-0.523L0.506,-0.523L0.506,-0.016Z" style="fill:rgb(122,122,117);fill-rule:nonzero;"/>
                </g>
                <g transform="matrix(48,0,0,48,693.357,1221.13)">
                    <path d="M0.048,-0.259C0.048,-0.305 0.055,-0.345 0.069,-0.38C0.082,-0.415 0.1,-0.444 0.123,-0.467C0.146,-0.49 0.172,-0.507 0.201,-0.519C0.23,-0.53 0.26,-0.536 0.291,-0.536C0.363,-0.536 0.419,-0.514 0.46,-0.469C0.5,-0.424 0.52,-0.358 0.52,-0.269C0.52,-0.262 0.52,-0.255 0.52,-0.247C0.519,-0.238 0.519,-0.231 0.518,-0.224L0.173,-0.224C0.176,-0.182 0.191,-0.15 0.218,-0.127C0.244,-0.103 0.282,-0.092 0.332,-0.092C0.361,-0.092 0.388,-0.095 0.413,-0.1C0.437,-0.105 0.456,-0.111 0.47,-0.117L0.486,-0.018C0.479,-0.015 0.47,-0.011 0.459,-0.008C0.447,-0.004 0.434,-0.001 0.419,0.003C0.404,0.006 0.387,0.008 0.37,0.01C0.353,0.012 0.335,0.013 0.317,0.013C0.271,0.013 0.231,0.006 0.197,-0.008C0.163,-0.021 0.135,-0.04 0.113,-0.065C0.091,-0.089 0.075,-0.118 0.064,-0.151C0.053,-0.184 0.048,-0.22 0.048,-0.259ZM0.399,-0.313C0.399,-0.33 0.397,-0.345 0.392,-0.361C0.387,-0.376 0.381,-0.389 0.372,-0.4C0.363,-0.411 0.352,-0.419 0.339,-0.426C0.326,-0.432 0.31,-0.435 0.292,-0.435C0.273,-0.435 0.257,-0.432 0.243,-0.425C0.229,-0.418 0.217,-0.408 0.208,-0.397C0.198,-0.386 0.19,-0.373 0.185,-0.358C0.18,-0.343 0.176,-0.328 0.174,-0.313L0.399,-0.313Z" style="fill:rgb(122,122,117);fill-rule:nonzero;"/>
                </g>
                <g transform="matrix(48,0,0,48,720.765,1221.13)">
                    <path d="M0.259,0.01C0.223,0.009 0.193,0.005 0.17,-0.002C0.146,-0.009 0.127,-0.02 0.113,-0.034C0.099,-0.047 0.089,-0.064 0.084,-0.085C0.078,-0.105 0.075,-0.128 0.075,-0.154L0.075,-0.756L0.196,-0.776L0.196,-0.177C0.196,-0.162 0.197,-0.15 0.2,-0.14C0.202,-0.13 0.206,-0.122 0.212,-0.115C0.218,-0.108 0.226,-0.102 0.237,-0.099C0.247,-0.095 0.26,-0.092 0.276,-0.09L0.259,0.01Z" style="fill:rgb(122,122,117);fill-rule:nonzero;"/>
                </g>
                <g transform="matrix(48,0,0,48,735.021,1221.13)">
                    <path d="M0.261,-0.085C0.298,-0.085 0.327,-0.087 0.346,-0.091L0.346,-0.225C0.339,-0.227 0.33,-0.229 0.317,-0.231C0.304,-0.233 0.29,-0.234 0.275,-0.234C0.262,-0.234 0.248,-0.233 0.235,-0.231C0.221,-0.229 0.209,-0.225 0.198,-0.22C0.187,-0.215 0.178,-0.207 0.171,-0.198C0.164,-0.188 0.161,-0.176 0.161,-0.161C0.161,-0.132 0.17,-0.113 0.188,-0.102C0.206,-0.091 0.23,-0.085 0.261,-0.085ZM0.251,-0.536C0.291,-0.536 0.325,-0.531 0.352,-0.521C0.379,-0.511 0.401,-0.497 0.418,-0.479C0.434,-0.461 0.446,-0.439 0.453,-0.414C0.46,-0.388 0.463,-0.36 0.463,-0.329L0.463,-0.012C0.444,-0.008 0.416,-0.003 0.379,0.003C0.341,0.008 0.298,0.011 0.251,0.011C0.22,0.011 0.191,0.008 0.165,0.002C0.139,-0.004 0.117,-0.014 0.099,-0.027C0.08,-0.04 0.066,-0.058 0.056,-0.079C0.045,-0.1 0.04,-0.127 0.04,-0.158C0.04,-0.188 0.046,-0.213 0.058,-0.234C0.069,-0.255 0.085,-0.272 0.105,-0.285C0.125,-0.298 0.148,-0.307 0.175,-0.313C0.201,-0.318 0.228,-0.321 0.257,-0.321C0.27,-0.321 0.284,-0.32 0.299,-0.319C0.314,-0.317 0.329,-0.314 0.346,-0.31L0.346,-0.33C0.346,-0.344 0.344,-0.357 0.341,-0.37C0.338,-0.383 0.332,-0.394 0.324,-0.404C0.315,-0.413 0.304,-0.421 0.291,-0.426C0.277,-0.431 0.26,-0.434 0.239,-0.434C0.211,-0.434 0.185,-0.432 0.162,-0.428C0.139,-0.424 0.12,-0.419 0.105,-0.414L0.09,-0.512C0.105,-0.517 0.128,-0.523 0.157,-0.528C0.186,-0.533 0.218,-0.536 0.251,-0.536Z" style="fill:rgb(122,122,117);fill-rule:nonzero;"/>
                </g>
            </g>
            <g transform="matrix(0.911196,0,0,0.911196,173.79,-201.75)">
                <g transform="matrix(48,0,0,48,528.909,1221.13)">
                    <path d="M0.199,-0L0.078,-0L0.078,-0.523L0.199,-0.523L0.199,-0ZM0.212,-0.676C0.212,-0.653 0.205,-0.635 0.19,-0.622C0.175,-0.609 0.158,-0.602 0.138,-0.602C0.117,-0.602 0.1,-0.609 0.085,-0.622C0.07,-0.635 0.063,-0.653 0.063,-0.676C0.063,-0.699 0.07,-0.718 0.085,-0.731C0.1,-0.744 0.117,-0.751 0.138,-0.751C0.158,-0.751 0.175,-0.744 0.19,-0.731C0.205,-0.718 0.212,-0.699 0.212,-0.676Z" style="fill:rgb(12,0,102);fill-rule:nonzero;"/>
                </g>
                <g transform="matrix(48,0,0,48,542.157,1221.13)">
                    <path d="M0.077,-0.506C0.1,-0.513 0.131,-0.519 0.168,-0.525C0.205,-0.531 0.247,-0.534 0.292,-0.534C0.335,-0.534 0.37,-0.528 0.399,-0.517C0.428,-0.505 0.451,-0.489 0.468,-0.468C0.485,-0.447 0.497,-0.421 0.504,-0.392C0.511,-0.362 0.514,-0.329 0.514,-0.294L0.514,-0L0.393,-0L0.393,-0.275C0.393,-0.303 0.391,-0.327 0.388,-0.347C0.384,-0.366 0.378,-0.382 0.37,-0.395C0.361,-0.407 0.35,-0.416 0.336,-0.422C0.321,-0.427 0.304,-0.43 0.283,-0.43C0.268,-0.43 0.252,-0.429 0.235,-0.427C0.218,-0.425 0.206,-0.423 0.198,-0.422L0.198,-0L0.077,-0L0.077,-0.506Z" style="fill:rgb(12,0,102);fill-rule:nonzero;"/>
                </g>
                <g transform="matrix(48,0,0,48,570.237,1221.13)">
                    <path d="M0.071,-0.661L0.192,-0.681L0.192,-0.523L0.378,-0.523L0.378,-0.422L0.192,-0.422L0.192,-0.209C0.192,-0.167 0.199,-0.137 0.212,-0.119C0.225,-0.101 0.248,-0.092 0.28,-0.092C0.302,-0.092 0.322,-0.094 0.339,-0.099C0.356,-0.104 0.369,-0.108 0.379,-0.112L0.399,-0.016C0.385,-0.01 0.367,-0.004 0.344,0.003C0.321,0.009 0.295,0.012 0.264,0.012C0.227,0.012 0.196,0.007 0.171,-0.003C0.146,-0.013 0.126,-0.028 0.111,-0.047C0.096,-0.066 0.086,-0.089 0.08,-0.116C0.074,-0.142 0.071,-0.173 0.071,-0.208L0.071,-0.661Z" style="fill:rgb(12,0,102);fill-rule:nonzero;"/>
                </g>
                <g transform="matrix(48,0,0,48,589.869,1221.13)">
                    <path d="M0.048,-0.259C0.048,-0.305 0.055,-0.345 0.069,-0.38C0.082,-0.415 0.1,-0.444 0.123,-0.467C0.146,-0.49 0.172,-0.507 0.201,-0.519C0.23,-0.53 0.26,-0.536 0.291,-0.536C0.363,-0.536 0.419,-0.514 0.46,-0.469C0.5,-0.424 0.52,-0.358 0.52,-0.269C0.52,-0.262 0.52,-0.255 0.52,-0.247C0.519,-0.238 0.519,-0.231 0.518,-0.224L0.173,-0.224C0.176,-0.182 0.191,-0.15 0.218,-0.127C0.244,-0.103 0.282,-0.092 0.332,-0.092C0.361,-0.092 0.388,-0.095 0.413,-0.1C0.437,-0.105 0.456,-0.111 0.47,-0.117L0.486,-0.018C0.479,-0.015 0.47,-0.011 0.459,-0.008C0.447,-0.004 0.434,-0.001 0.419,0.003C0.404,0.006 0.387,0.008 0.37,0.01C0.353,0.012 0.335,0.013 0.317,0.013C0.271,0.013 0.231,0.006 0.197,-0.008C0.163,-0.021 0.135,-0.04 0.113,-0.065C0.091,-0.089 0.075,-0.118 0.064,-0.151C0.053,-0.184 0.048,-0.22 0.048,-0.259ZM0.399,-0.313C0.399,-0.33 0.397,-0.345 0.392,-0.361C0.387,-0.376 0.381,-0.389 0.372,-0.4C0.363,-0.411 0.352,-0.419 0.339,-0.426C0.326,-0.432 0.31,-0.435 0.292,-0.435C0.273,-0.435 0.257,-0.432 0.243,-0.425C0.229,-0.418 0.217,-0.408 0.208,-0.397C0.198,-0.386 0.19,-0.373 0.185,-0.358C0.18,-0.343 0.176,-0.328 0.174,-0.313L0.399,-0.313Z" style="fill:rgb(12,0,102);fill-rule:nonzero;"/>
                </g>
                <g transform="matrix(48,0,0,48,617.277,1221.13)">
                    <path d="M0.259,0.01C0.223,0.009 0.193,0.005 0.17,-0.002C0.146,-0.009 0.127,-0.02 0.113,-0.034C0.099,-0.047 0.089,-0.064 0.084,-0.085C0.078,-0.105 0.075,-0.128 0.075,-0.154L0.075,-0.756L0.196,-0.776L0.196,-0.177C0.196,-0.162 0.197,-0.15 0.2,-0.14C0.202,-0.13 0.206,-0.122 0.212,-0.115C0.218,-0.108 0.226,-0.102 0.237,-0.099C0.247,-0.095 0.26,-0.092 0.276,-0.09L0.259,0.01Z" style="fill:rgb(12,0,102);fill-rule:nonzero;"/>
                </g>
                <g transform="matrix(48,0,0,48,631.533,1221.13)">
                    <path d="M0.199,-0L0.078,-0L0.078,-0.523L0.199,-0.523L0.199,-0ZM0.212,-0.676C0.212,-0.653 0.205,-0.635 0.19,-0.622C0.175,-0.609 0.158,-0.602 0.138,-0.602C0.117,-0.602 0.1,-0.609 0.085,-0.622C0.07,-0.635 0.063,-0.653 0.063,-0.676C0.063,-0.699 0.07,-0.718 0.085,-0.731C0.1,-0.744 0.117,-0.751 0.138,-0.751C0.158,-0.751 0.175,-0.744 0.19,-0.731C0.205,-0.718 0.212,-0.699 0.212,-0.676Z" style="fill:rgb(12,0,102);fill-rule:nonzero;"/>
                </g>
                <g transform="matrix(48,0,0,48,644.781,1221.13)">
                    <path d="M0.172,-0.275C0.172,-0.224 0.183,-0.186 0.206,-0.163C0.228,-0.139 0.257,-0.127 0.292,-0.127C0.311,-0.127 0.33,-0.13 0.347,-0.135C0.364,-0.14 0.377,-0.147 0.388,-0.154L0.388,-0.425C0.379,-0.427 0.369,-0.429 0.356,-0.431C0.343,-0.432 0.327,-0.433 0.308,-0.433C0.264,-0.433 0.23,-0.419 0.207,-0.39C0.184,-0.361 0.172,-0.322 0.172,-0.275ZM0.509,-0.053C0.509,0.03 0.488,0.091 0.446,0.13C0.403,0.169 0.338,0.188 0.251,0.188C0.219,0.188 0.188,0.185 0.158,0.18C0.127,0.175 0.1,0.168 0.075,0.159L0.097,0.056C0.118,0.065 0.141,0.072 0.168,0.077C0.194,0.082 0.222,0.085 0.253,0.085C0.302,0.085 0.336,0.075 0.357,0.055C0.378,0.035 0.388,0.005 0.388,-0.034L0.388,-0.054C0.376,-0.048 0.36,-0.042 0.341,-0.036C0.321,-0.03 0.298,-0.027 0.273,-0.027C0.24,-0.027 0.209,-0.032 0.182,-0.043C0.154,-0.054 0.13,-0.069 0.111,-0.09C0.091,-0.111 0.076,-0.136 0.065,-0.168C0.054,-0.199 0.048,-0.234 0.048,-0.275C0.048,-0.313 0.054,-0.348 0.066,-0.38C0.077,-0.412 0.094,-0.439 0.117,-0.462C0.139,-0.485 0.166,-0.502 0.198,-0.515C0.23,-0.528 0.266,-0.534 0.307,-0.534C0.346,-0.534 0.384,-0.531 0.419,-0.525C0.454,-0.519 0.484,-0.513 0.509,-0.506L0.509,-0.053Z" style="fill:rgb(12,0,102);fill-rule:nonzero;"/>
                </g>
                <g transform="matrix(48,0,0,48,672.909,1221.13)">
                    <path d="M0.048,-0.259C0.048,-0.305 0.055,-0.345 0.069,-0.38C0.082,-0.415 0.1,-0.444 0.123,-0.467C0.146,-0.49 0.172,-0.507 0.201,-0.519C0.23,-0.53 0.26,-0.536 0.291,-0.536C0.363,-0.536 0.419,-0.514 0.46,-0.469C0.5,-0.424 0.52,-0.358 0.52,-0.269C0.52,-0.262 0.52,-0.255 0.52,-0.247C0.519,-0.238 0.519,-0.231 0.518,-0.224L0.173,-0.224C0.176,-0.182 0.191,-0.15 0.218,-0.127C0.244,-0.103 0.282,-0.092 0.332,-0.092C0.361,-0.092 0.388,-0.095 0.413,-0.1C0.437,-0.105 0.456,-0.111 0.47,-0.117L0.486,-0.018C0.479,-0.015 0.47,-0.011 0.459,-0.008C0.447,-0.004 0.434,-0.001 0.419,0.003C0.404,0.006 0.387,0.008 0.37,0.01C0.353,0.012 0.335,0.013 0.317,0.013C0.271,0.013 0.231,0.006 0.197,-0.008C0.163,-0.021 0.135,-0.04 0.113,-0.065C0.091,-0.089 0.075,-0.118 0.064,-0.151C0.053,-0.184 0.048,-0.22 0.048,-0.259ZM0.399,-0.313C0.399,-0.33 0.397,-0.345 0.392,-0.361C0.387,-0.376 0.381,-0.389 0.372,-0.4C0.363,-0.411 0.352,-0.419 0.339,-0.426C0.326,-0.432 0.31,-0.435 0.292,-0.435C0.273,-0.435 0.257,-0.432 0.243,-0.425C0.229,-0.418 0.217,-0.408 0.208,-0.397C0.198,-0.386 0.19,-0.373 0.185,-0.358C0.18,-0.343 0.176,-0.328 0.174,-0.313L0.399,-0.313Z" style="fill:rgb(12,0,102);fill-rule:nonzero;"/>
                </g>
                <g transform="matrix(48,0,0,48,700.317,1221.13)">
                    <path d="M0.077,-0.506C0.1,-0.513 0.131,-0.519 0.168,-0.525C0.205,-0.531 0.247,-0.534 0.292,-0.534C0.335,-0.534 0.37,-0.528 0.399,-0.517C0.428,-0.505 0.451,-0.489 0.468,-0.468C0.485,-0.447 0.497,-0.421 0.504,-0.392C0.511,-0.362 0.514,-0.329 0.514,-0.294L0.514,-0L0.393,-0L0.393,-0.275C0.393,-0.303 0.391,-0.327 0.388,-0.347C0.384,-0.366 0.378,-0.382 0.37,-0.395C0.361,-0.407 0.35,-0.416 0.336,-0.422C0.321,-0.427 0.304,-0.43 0.283,-0.43C0.268,-0.43 0.252,-0.429 0.235,-0.427C0.218,-0.425 0.206,-0.423 0.198,-0.422L0.198,-0L0.077,-0L0.077,-0.506Z" style="fill:rgb(12,0,102);fill-rule:nonzero;"/>
                </g>
                <g transform="matrix(48,0,0,48,728.397,1221.13)">
                    <path d="M0.071,-0.661L0.192,-0.681L0.192,-0.523L0.378,-0.523L0.378,-0.422L0.192,-0.422L0.192,-0.209C0.192,-0.167 0.199,-0.137 0.212,-0.119C0.225,-0.101 0.248,-0.092 0.28,-0.092C0.302,-0.092 0.322,-0.094 0.339,-0.099C0.356,-0.104 0.369,-0.108 0.379,-0.112L0.399,-0.016C0.385,-0.01 0.367,-0.004 0.344,0.003C0.321,0.009 0.295,0.012 0.264,0.012C0.227,0.012 0.196,0.007 0.171,-0.003C0.146,-0.013 0.126,-0.028 0.111,-0.047C0.096,-0.066 0.086,-0.089 0.08,-0.116C0.074,-0.142 0.071,-0.173 0.071,-0.208L0.071,-0.661Z" style="fill:rgb(12,0,102);fill-rule:nonzero;"/>
                </g>
                <g transform="matrix(48,0,0,48,748.029,1221.13)">
                    <path d="M0.048,-0.259C0.048,-0.305 0.055,-0.345 0.069,-0.38C0.082,-0.415 0.1,-0.444 0.123,-0.467C0.146,-0.49 0.172,-0.507 0.201,-0.519C0.23,-0.53 0.26,-0.536 0.291,-0.536C0.363,-0.536 0.419,-0.514 0.46,-0.469C0.5,-0.424 0.52,-0.358 0.52,-0.269C0.52,-0.262 0.52,-0.255 0.52,-0.247C0.519,-0.238 0.519,-0.231 0.518,-0.224L0.173,-0.224C0.176,-0.182 0.191,-0.15 0.218,-0.127C0.244,-0.103 0.282,-0.092 0.332,-0.092C0.361,-0.092 0.388,-0.095 0.413,-0.1C0.437,-0.105 0.456,-0.111 0.47,-0.117L0.486,-0.018C0.479,-0.015 0.47,-0.011 0.459,-0.008C0.447,-0.004 0.434,-0.001 0.419,0.003C0.404,0.006 0.387,0.008 0.37,0.01C0.353,0.012 0.335,0.013 0.317,0.013C0.271,0.013 0.231,0.006 0.197,-0.008C0.163,-0.021 0.135,-0.04 0.113,-0.065C0.091,-0.089 0.075,-0.118 0.064,-0.151C0.053,-0.184 0.048,-0.22 0.048,-0.259ZM0.399,-0.313C0.399,-0.33 0.397,-0.345 0.392,-0.361C0.387,-0.376 0.381,-0.389 0.372,-0.4C0.363,-0.411 0.352,-0.419 0.339,-0.426C0.326,-0.432 0.31,-0.435 0.292,-0.435C0.273,-0.435 0.257,-0.432 0.243,-0.425C0.229,-0.418 0.217,-0.408 0.208,-0.397C0.198,-0.386 0.19,-0.373 0.185,-0.358C0.18,-0.343 0.176,-0.328 0.174,-0.313L0.399,-0.313Z" style="fill:rgb(12,0,102);fill-rule:nonzero;"/>
                </g>
            </g>
            <g transform="matrix(1,0,0,1,3.69422,-16.4136)">
                <g transform="matrix(6.3397e-17,1.03535,-0.937175,5.73854e-17,1455.22,262.254)">
                    <path d="M626.414,880.775L641.907,911.761L610.921,911.761L626.414,880.775Z" style="fill:rgb(12,162,228);"/>
                </g>
                <g transform="matrix(6.3397e-17,1.03535,-0.937175,5.73854e-17,1476.33,262.254)">
                    <path d="M626.414,880.775L641.907,911.761L610.921,911.761L626.414,880.775Z" style="fill:rgb(12,162,228);"/>
                </g>
            </g>
        </g>
    </g>
</svg>
